<?xml version="1.0" encoding="UTF-8" standalone="no"?>
<svg 
    role="img" 
    xmlns="http://www.w3.org/2000/svg" 
    width="1000mm"
    height="1000mm"
    viewBox="0 0 1000 1000"
    style="max-width:1.6em; height: auto;">
    
    <path 
        id="path" 
        style="opacity:1;vector-effect:none;fill:#000000;fill-opacity:1;"
        d=" M 351 96C 391 102 422 128 448 156C 468 178 486 204 500 228C 513 204 530 180 550 159C 575 131 606 106 645 100C 650 100 655 99 660 100C 695 101 731 122 756 159C 785 202 796 243 784 279C 782 284 780 288 778 293C 778 293 825 293 825 293C 859 293 887 321 887 355C 887 355 887 480 887 480C 887 505 876 543 837 543C 837 543 550 543 550 543C 550 543 550 293 550 293C 550 293 450 293 450 293C 450 293 450 543 450 543C 450 543 163 543 163 543C 125 543 113 511 113 480C 113 480 113 355 113 355C 113 321 141 293 175 293C 175 293 221 293 221 293C 217 287 215 281 212 275C 199 238 210 197 239 154C 264 117 300 95 336 95C 337 95 337 95 338 95C 342 95 347 95 351 96C 351 96 351 96 351 96M 332 169C 332 169 331 169 331 169C 323 170 315 175 301 196C 280 228 280 243 283 249C 285 256 295 265 317 273C 349 285 401 290 448 291C 447 288 445 285 444 282C 431 257 412 228 392 207C 372 185 351 172 339 170C 337 170 334 169 332 169C 332 169 332 169 332 169M 662 174C 661 174 661 174 660 174C 659 174 657 174 656 175C 645 176 624 188 605 209C 586 230 568 258 556 283C 554 286 553 289 551 292C 599 290 649 287 681 276C 703 268 711 260 713 254C 715 249 715 233 694 201C 679 178 671 174 662 174C 662 174 662 174 662 174M 450 618C 450 618 450 905 450 905C 450 905 225 905 225 905C 191 905 163 876 163 843C 163 843 163 618 163 618C 163 618 450 618 450 618M 837 618C 837 618 837 843 837 843C 837 876 809 905 775 905C 775 905 550 905 550 905C 550 905 550 618 550 618C 550 618 837 618 837 618"
        transform="">
    </path>    
</svg>